<svg xmlns="http://www.w3.org/2000/svg" width="256" height="256" viewBox="0 0 256 256" role="img" aria-labelledby="title desc">
  <title id="title">Лицар III</title>
  <desc id="desc">Лицар III, level III, medieval fantasy league emblem SVG.</desc>
  <defs>
    <linearGradient id="steel" x1="52" y1="24" x2="204" y2="232" gradientUnits="userSpaceOnUse">
      <stop offset="0" stop-color="#f1f1ea"/>
      <stop offset="0.22" stop-color="#8f948c"/>
      <stop offset="0.56" stop-color="#2b2f2f"/>
      <stop offset="1" stop-color="#d7d3c6"/>
    </linearGradient>
    <linearGradient id="gold" x1="48" y1="20" x2="210" y2="230" gradientUnits="userSpaceOnUse">
      <stop offset="0" stop-color="#fff2a8"/>
      <stop offset="0.28" stop-color="#d6a62f"/>
      <stop offset="0.62" stop-color="#7f4b11"/>
      <stop offset="1" stop-color="#ffdf72"/>
    </linearGradient>
    <linearGradient id="darkSteel" x1="48" y1="20" x2="208" y2="230" gradientUnits="userSpaceOnUse">
      <stop offset="0" stop-color="#7b7d7b"/>
      <stop offset="0.34" stop-color="#272a2c"/>
      <stop offset="0.7" stop-color="#060708"/>
      <stop offset="1" stop-color="#a7a7a0"/>
    </linearGradient>
    <linearGradient id="silver" x1="48" y1="20" x2="208" y2="230" gradientUnits="userSpaceOnUse">
      <stop offset="0" stop-color="#ffffff"/>
      <stop offset="0.32" stop-color="#c5c7c4"/>
      <stop offset="0.7" stop-color="#6a7070"/>
      <stop offset="1" stop-color="#f4f1e9"/>
    </linearGradient>
    <filter id="shadow" x="-20%" y="-20%" width="140%" height="140%">
      <feDropShadow dx="0" dy="5" stdDeviation="4" flood-color="#000000" flood-opacity="0.45"/>
    </filter>
  </defs>
  

  <g filter="url(#shadow)">
    <path d="M128 22 L214 58 L202 160 Q190 214 128 238 Q66 214 54 160 L42 58 Z" fill="url(#steel)" stroke="#101313" stroke-width="3"/>
    <path d="M128 36 L198 66 L188 156 Q178 200 128 222 Q78 200 68 156 L58 66 Z" fill="#183b66" stroke="#111" stroke-width="2"/>
    <path d="M128 45 L186 70 L178 150 Q170 190 128 210 Q86 190 78 150 L70 70 Z" fill="none" stroke="rgba(255,255,255,.32)" stroke-width="3"/>
  </g>

  <g transform="rotate(0 128 137)">
    <path d="M124.4 86.6 L128 63.56 L131.6 86.6 L130.16 165.8 H125.84 Z" fill="url(#silver)" stroke="#111" stroke-width="1.44"/>
    <rect x="110.0" y="151.4" width="36.0" height="5.76" rx="1.44" fill="url(#silver)" stroke="#111" stroke-width="1.44"/>
    <rect x="123.68" y="157.16" width="8.64" height="17.28" rx="2.16" fill="#3b2a18" stroke="#111" stroke-width="1.44"/>
    <circle cx="128" cy="178.76" r="5.76" fill="url(#silver)" stroke="#111" stroke-width="1.44"/>
  </g>

  <path d="M96 98 H160 V140 Q160 166 128 182 Q96 166 96 140 Z" fill="#1f4778" stroke="#111" stroke-width="3"/>

  <path d="M123.68 111.0 H132.32 V130.2 H148.16 V138.84 H132.32 V160.92 H123.68 V138.84 H107.84 V130.2 H123.68 Z"
        fill="#e8edf2" stroke="#111" stroke-width="1.44" stroke-linejoin="round"/>

  <path d="M101 92 Q128 66 155 92 V118 Q128 100 101 118 Z" fill="url(#silver)" stroke="#111" stroke-width="3"/>
  <rect x="102" y="114" width="52" height="24" rx="5" fill="#3c4145" stroke="#111" stroke-width="3"/>
  <path d="M115 118 V135 M128 116 V137 M141 118 V135" stroke="#cfd3d2" stroke-width="3"/>

  <g filter="url(#shadow)">
    <path d="M88 200 H168 L158 236 H98 Z" fill="#222" stroke="url(#steel)" stroke-width="5"/>
    <text x="128" y="226" text-anchor="middle" font-family="Georgia, 'Times New Roman', serif" font-size="33" font-weight="700" fill="#f0eee4" stroke="#111" stroke-width="1">III</text>
  </g>
</svg>
